<?xml version="1.0" standalone="no"?>
<!DOCTYPE svg PUBLIC "-//W3C//DTD SVG 20010904//EN"
 "http://www.w3.org/TR/2001/REC-SVG-20010904/DTD/svg10.dtd">
<svg version="1.0" xmlns="http://www.w3.org/2000/svg"
 width="1024.000000pt" height="1024.000000pt" viewBox="0 0 1024.000000 1024.000000"
 preserveAspectRatio="xMidYMid meet">
<metadata>
Created by potrace 1.16, written by Peter Selinger 2001-2019
</metadata>
<g transform="translate(0.000000,1024.000000) scale(0.100000,-0.100000)"
fill="#607d97" stroke="none">
<path d="M1516 7482 c-397 -100 -710 -723 -825 -1642 -34 -270 -44 -490 -38
-829 11 -637 97 -1123 279 -1586 131 -332 332 -582 531 -657 49 -19 135 -19
3581 -23 1942 -2 3565 -5 3606 -7 250 -8 497 227 670 637 412 974 391 2654
-45 3560 -140 290 -321 482 -516 544 -55 18 -7174 21 -7243 3z m6627 -254 c-4
-7 -29 -45 -55 -84 -194 -293 -339 -756 -407 -1304 -34 -270 -44 -490 -38
-829 7 -397 35 -664 103 -996 78 -377 217 -740 360 -942 24 -34 44 -64 44 -68
0 -3 -1486 -4 -3303 -3 l-3302 3 -45 31 c-147 102 -291 341 -392 649 -244 742
-273 1808 -72 2627 108 440 287 783 464 886 39 24 59 28 160 33 63 3 1550 6
3303 7 2548 2 3186 -1 3180 -10z m584 -14 c29 -14 79 -53 113 -87 503 -507
682 -2189 356 -3328 -115 -401 -285 -692 -455 -778 -56 -29 -166 -29 -223 0
-105 54 -241 231 -331 432 -318 714 -388 1936 -161 2859 136 557 374 927 595
928 39 0 70 -7 106 -26z"/>
<path d="M2870 6425 c-144 -32 -250 -82 -359 -168 -159 -126 -308 -385 -281
-486 24 -90 135 -125 202 -64 10 9 41 63 69 121 66 136 166 243 280 297 220
104 479 77 607 -65 12 -14 38 -58 58 -97 72 -143 68 -299 -12 -507 -78 -201
-171 -335 -474 -681 -106 -121 -218 -249 -248 -285 -30 -36 -153 -162 -273
-280 -186 -184 -219 -220 -224 -252 -9 -46 18 -107 55 -125 20 -10 193 -12
795 -10 722 2 772 3 803 20 59 32 79 115 42 175 -38 63 -30 62 -662 62 l-572
0 105 108 c108 111 506 564 619 706 96 119 153 210 215 338 105 220 141 368
133 554 -9 190 -66 332 -184 462 -62 68 -137 115 -247 155 -75 27 -95 30 -232
33 -106 3 -169 -1 -215 -11z"/>
<path d="M4135 6396 c-17 -7 -37 -26 -44 -42 -16 -35 -114 -1095 -108 -1167 5
-60 32 -98 82 -115 53 -18 91 -4 177 63 40 31 93 67 118 80 234 119 518 61
699 -142 208 -232 208 -580 0 -807 -171 -188 -441 -238 -673 -126 -100 48
-161 105 -269 250 -43 59 -97 80 -152 59 -88 -33 -106 -122 -45 -223 47 -78
148 -187 225 -242 79 -56 194 -109 293 -136 108 -28 296 -28 404 0 240 65 429
215 534 427 63 128 84 209 91 350 12 251 -72 474 -245 652 -232 237 -604 320
-902 200 l-60 -25 0 32 c1 65 57 656 63 662 4 4 222 1 486 -5 526 -13 525 -13
569 44 26 33 29 92 7 135 -31 60 -51 63 -370 71 -807 19 -849 20 -880 5z"/>
<path d="M6163 6325 c-55 -24 -67 -61 -71 -225 l-4 -145 -87 -42 c-414 -200
-582 -804 -350 -1267 21 -43 55 -100 74 -126 78 -106 216 -212 327 -251 l36
-12 4 -152 c3 -143 4 -152 28 -182 47 -59 121 -66 180 -17 40 34 50 78 50 214
l0 115 82 23 c45 12 111 39 146 58 116 65 270 231 292 315 30 110 -90 199
-186 140 -18 -11 -49 -45 -69 -75 -46 -70 -112 -129 -190 -170 -56 -29 -67
-31 -160 -31 -94 0 -104 2 -163 33 -127 66 -234 212 -279 382 -27 100 -24 292
5 395 64 223 225 392 394 414 161 20 297 -52 406 -214 75 -111 150 -132 225
-65 29 26 32 34 32 87 0 53 -5 66 -43 125 -96 148 -258 268 -414 307 l-73 19
-5 139 c-6 156 -16 184 -75 209 -42 17 -71 17 -112 -1z"/>
</g>
</svg>
