<?xml version="1.0" standalone="no"?>
<!DOCTYPE svg PUBLIC "-//W3C//DTD SVG 20010904//EN"
 "http://www.w3.org/TR/2001/REC-SVG-20010904/DTD/svg10.dtd">
<svg version="1.0" xmlns="http://www.w3.org/2000/svg"
 width="1024.000000pt" height="1024.000000pt" viewBox="0 0 1024.000000 1024.000000"
 preserveAspectRatio="xMidYMid meet">
<metadata>
Created by potrace 1.16, written by Peter Selinger 2001-2019
</metadata>
<g transform="translate(0.000000,1024.000000) scale(0.100000,-0.100000)"
fill="#607d97" stroke="none">
<path d="M1516 7482 c-397 -100 -710 -723 -825 -1642 -34 -270 -44 -490 -38
-829 11 -637 97 -1123 279 -1586 131 -332 332 -582 531 -657 49 -19 135 -19
3581 -23 1942 -2 3565 -5 3606 -7 250 -8 497 227 670 637 412 974 391 2654
-45 3560 -140 290 -321 482 -516 544 -55 18 -7174 21 -7243 3z m6627 -254 c-4
-7 -29 -45 -55 -84 -194 -293 -339 -756 -407 -1304 -34 -270 -44 -490 -38
-829 7 -397 35 -664 103 -996 78 -377 217 -740 360 -942 24 -34 44 -64 44 -68
0 -3 -1486 -4 -3303 -3 l-3302 3 -45 31 c-147 102 -291 341 -392 649 -244 742
-273 1808 -72 2627 108 440 287 783 464 886 39 24 59 28 160 33 63 3 1550 6
3303 7 2548 2 3186 -1 3180 -10z m584 -14 c29 -14 79 -53 113 -87 503 -507
682 -2189 356 -3328 -115 -401 -285 -692 -455 -778 -56 -29 -166 -29 -223 0
-105 54 -241 231 -331 432 -318 714 -388 1936 -161 2859 136 557 374 927 595
928 39 0 70 -7 106 -26z"/>
<path d="M4453 6455 c-87 -19 -210 -86 -287 -156 -336 -308 -483 -970 -355
-1598 41 -204 132 -428 236 -584 59 -89 182 -211 257 -256 393 -235 814 -2
1007 559 75 217 103 394 103 655 1 262 -29 460 -102 676 -76 225 -177 394
-315 526 -95 90 -188 144 -303 173 -88 23 -153 24 -241 5z m252 -280 c137 -67
272 -247 350 -468 15 -43 26 -79 24 -81 -31 -26 -1016 -779 -1024 -783 -17 -6
-24 52 -32 242 -16 436 116 853 327 1031 59 50 66 54 121 75 73 26 160 21 234
-16z m452 -1145 c-5 -195 -19 -296 -62 -445 -89 -308 -251 -516 -430 -553
-176 -37 -365 114 -497 394 -22 48 -41 99 -42 114 -1 25 49 66 509 420 l510
392 8 -69 c5 -37 6 -151 4 -253z"/>
<path d="M2983 6237 c-232 -100 -433 -193 -447 -206 -71 -67 -42 -184 53 -211
43 -12 65 -5 410 144 162 70 296 125 298 123 2 -3 -1 -488 -7 -1080 -12 -1173
-14 -1124 44 -1162 62 -41 141 -23 183 42 17 25 18 74 24 703 16 1684 15 1742
-6 1774 -20 31 -70 56 -107 55 -13 0 -213 -82 -445 -182z"/>
<path d="M6163 6325 c-55 -24 -67 -61 -71 -225 l-4 -145 -87 -42 c-414 -200
-582 -804 -350 -1267 21 -43 55 -100 74 -126 78 -106 216 -212 327 -251 l36
-12 4 -152 c3 -143 4 -152 28 -182 47 -59 121 -66 180 -17 40 34 50 78 50 214
l0 115 82 23 c45 12 111 39 146 58 116 65 270 231 292 315 30 110 -90 199
-186 140 -18 -11 -49 -45 -69 -75 -46 -70 -112 -129 -190 -170 -56 -29 -67
-31 -160 -31 -94 0 -104 2 -163 33 -127 66 -234 212 -279 382 -27 100 -24 292
5 395 64 223 225 392 394 414 161 20 297 -52 406 -214 75 -111 150 -132 225
-65 29 26 32 34 32 87 0 53 -5 66 -43 125 -96 148 -258 268 -414 307 l-73 19
-5 139 c-6 156 -16 184 -75 209 -42 17 -71 17 -112 -1z"/>
</g>
</svg>
