 <svg  version="1.0" xmlns="http://www.w3.org/2000/svg"  width="300.000000pt" height="300.000000pt" viewBox="0 0 300.000000 300.000000"  preserveAspectRatio="xMidYMid meet">  <g transform="translate(0.000000,300.000000) scale(0.050000,-0.050000)" fill="#000000" stroke="none"> <path d="M4567 3691 c-16 -44 4 -190 31 -217 29 -29 66 75 58 165 -6 76 -66 111 -89 52z"/> <path d="M4907 3619 c-264 -81 -217 -353 75 -439 171 -50 239 -102 206 -155 -58 -92 -258 -82 -294 15 -18 47 -35 58 -100 64 -97 9 -110 -17 -61 -118 122 -249 627 -183 627 81 0 129 -61 180 -310 259 -149 47 -189 96 -118 148 77 57 228 10 228 -71 0 -14 35 -23 90 -23 99 0 104 9 62 109 -48 114 -249 178 -405 130z"/> <path d="M560 3230 l0 -390 90 0 90 0 0 140 0 140 171 0 c261 0 349 63 349 250 0 202 -86 250 -449 250 l-251 0 0 -390z m509 219 c100 -101 26 -184 -174 -192 l-155 -7 0 115 0 115 149 0 c108 0 157 -8 180 -31z"/> <path d="M1360 3230 l0 -390 268 0 267 0 10 65 c15 96 7 99 -189 92 l-180 -7 3 315 3 315 -91 0 -91 0 0 -390z"/> <path d="M2271 3555 c-15 -36 -83 -200 -151 -365 -68 -165 -128 -311 -134 -325 -7 -18 15 -25 79 -25 87 0 91 2 122 85 l33 86 172 -1 172 -2 28 -79 c15 -43 28 -81 28 -84 0 -3 41 -5 92 -5 50 0 88 8 85 17 -4 9 -74 184 -157 389 l-150 373 -96 1 c-90 0 -98 -4 -123 -65z m190 -285 l55 -130 -118 0 c-65 0 -118 4 -118 9 0 5 17 53 37 105 20 53 43 113 50 134 18 50 29 36 94 -118z"/> <path d="M2740 3550 l0 -70 150 0 150 0 0 -320 0 -320 80 0 80 0 0 320 0 320 150 0 150 0 0 70 0 70 -380 0 -380 0 0 -70z"/> <path d="M3819 3593 c-346 -94 -466 -387 -246 -607 69 -69 100 -87 133 -78 197 56 507 133 614 153 200 38 198 44 -56 145 -295 117 -252 126 -434 -86 -86 -100 -160 -176 -166 -171 -32 32 284 391 345 391 47 0 459 -167 506 -205 39 -31 55 -1 53 96 -6 267 -398 456 -749 362z m208 -34 c63 -50 67 -100 13 -149 -49 -44 -78 -25 -32 20 38 39 38 41 11 91 -38 72 -123 41 -144 -51 -9 -39 -9 -39 -25 -2 -37 85 97 153 177 91z"/> <path d="M4305 3019 c-113 -29 -285 -70 -384 -90 -206 -42 -211 -56 -32 -87 219 -38 462 30 590 167 67 71 58 71 -174 10z"/> <path d="M5324 2796 c-52 -52 2 -129 75 -106 65 20 40 130 -29 130 -12 0 -33 -11 -46 -24z"/> <path d="M568 2762 c-4 -5 -8 -17 -8 -27 0 -20 3968 -15 4430 6 l280 13 -260 5 c-450 9 -4433 12 -4442 3z"/> <path d="M3442 2635 c-159 -58 -180 -198 -44 -289 102 -69 342 -44 342 35 0 27 -23 23 -69 -12 -138 -104 -389 41 -294 171 66 88 170 97 338 27 40 -17 29 21 -14 48 -61 38 -184 47 -259 20z"/> <path d="M4248 2636 c-7 -10 -25 -14 -40 -8 -68 26 -208 -75 -208 -149 0 -49 91 -139 141 -139 20 0 40 -11 44 -25 7 -18 21 -14 52 13 59 52 54 69 -27 103 -78 33 -87 56 -35 89 25 16 28 25 10 33 -14 6 -25 20 -25 32 0 12 21 2 46 -22 26 -23 62 -43 80 -43 40 0 47 -71 9 -87 -19 -7 -18 -15 5 -31 26 -18 24 -25 -10 -52 -38 -29 -37 -30 20 -18 113 25 184 116 148 194 -24 53 -191 141 -210 110z"/> <path d="M4522 2625 c-72 -57 -42 -118 74 -152 78 -23 94 -35 94 -75 0 -62 -113 -80 -172 -26 -21 19 -38 24 -38 12 0 -31 82 -84 130 -84 185 0 165 173 -25 210 -45 9 -65 24 -65 49 0 65 104 82 164 28 44 -40 76 -19 35 23 -51 50 -145 58 -197 15z"/> <path d="M3800 2470 l0 -170 120 0 c67 0 120 9 120 20 0 11 -45 20 -100 20 l-100 0 0 150 c0 87 -8 150 -20 150 -12 0 -20 -70 -20 -170z"/> <path d="M4800 2470 l0 -170 130 0 c73 0 130 9 130 20 0 11 -49 20 -110 20 -109 0 -110 1 -110 60 0 59 1 60 110 60 61 0 110 9 110 20 0 11 -49 20 -110 20 -108 0 -110 1 -110 59 0 58 3 59 115 66 l115 7 -135 4 -135 4 0 -170z"/> <path d="M5135 2626 l65 -9 0 -158 c0 -93 8 -159 20 -159 12 0 20 66 20 159 l0 158 65 9 c36 4 -2 8 -85 8 -82 0 -121 -4 -85 -8z"/> </g> </svg> 