<?xml version="1.0" standalone="no"?>
<!DOCTYPE svg PUBLIC "-//W3C//DTD SVG 20010904//EN"
 "http://www.w3.org/TR/2001/REC-SVG-20010904/DTD/svg10.dtd">
<svg version="1.0" xmlns="http://www.w3.org/2000/svg"
 width="1024.000000pt" height="1024.000000pt" viewBox="0 0 1024.000000 1024.000000"
 preserveAspectRatio="xMidYMid meet">
<metadata>
Created by potrace 1.16, written by Peter Selinger 2001-2019
</metadata>
<g transform="translate(0.000000,1024.000000) scale(0.100000,-0.100000)"
fill="#607d97" stroke="none">
<path d="M4845 8149 c-557 -52 -1062 -244 -1530 -582 -339 -246 -646 -595
-854 -974 -122 -222 -250 -551 -300 -773 -103 -459 -104 -919 -5 -1370 32
-145 127 -432 188 -570 416 -931 1280 -1595 2288 -1760 701 -114 1449 29 2050
391 491 296 873 702 1133 1202 220 422 327 835 342 1317 21 670 -171 1307
-560 1855 -502 708 -1310 1178 -2166 1259 -174 17 -436 19 -586 5z m425 -299
c700 -41 1329 -329 1815 -831 136 -140 216 -238 309 -377 408 -612 553 -1356
405 -2072 -92 -445 -284 -844 -573 -1192 -379 -455 -874 -766 -1451 -912 -244
-61 -326 -70 -650 -71 -272 0 -312 2 -430 24 -425 76 -793 222 -1110 439 -671
462 -1109 1197 -1186 1997 -17 177 -7 539 20 690 105 596 347 1076 750 1488
471 483 1119 779 1781 816 74 5 142 8 150 9 8 1 85 -3 170 -8z"/>
<path d="M4190 6622 c-58 -28 -70 -66 -70 -219 0 -132 0 -133 -23 -133 -46 0
-144 -31 -227 -72 -187 -91 -280 -245 -280 -459 0 -174 66 -335 185 -455 77
-78 135 -115 364 -229 380 -190 489 -291 499 -466 5 -88 -6 -134 -50 -200 -38
-57 -105 -102 -183 -125 -92 -27 -327 -24 -417 5 -96 31 -158 90 -203 196 -42
98 -79 135 -136 135 -77 0 -129 -51 -129 -128 0 -82 76 -229 162 -314 84 -82
250 -158 348 -158 14 0 30 -4 35 -8 6 -4 10 -69 10 -157 0 -141 1 -152 23
-182 58 -82 194 -53 222 46 5 20 10 93 10 162 0 136 1 139 54 139 41 0 140 30
214 65 287 135 392 546 209 819 -95 142 -195 215 -530 388 -300 154 -329 177
-391 299 -40 80 -52 157 -36 236 37 175 322 273 543 186 109 -43 170 -111 211
-237 14 -41 30 -86 37 -98 29 -55 91 -79 152 -59 77 26 97 88 66 201 -35 126
-79 209 -152 287 -73 77 -139 117 -257 157 l-75 25 -5 143 c-6 162 -15 189
-75 214 -45 18 -63 18 -105 -4z"/>
<path d="M5893 6237 c-232 -100 -433 -193 -447 -206 -71 -67 -42 -184 53 -211
43 -12 65 -5 410 144 162 70 296 125 298 123 2 -3 -1 -488 -7 -1080 -12 -1173
-14 -1124 44 -1162 62 -41 141 -23 183 42 17 25 18 74 24 703 16 1684 15 1742
-6 1774 -20 31 -70 56 -107 55 -13 0 -213 -82 -445 -182z"/>
</g>
</svg>
