<?xml version="1.0" standalone="no"?>
<!DOCTYPE svg PUBLIC "-//W3C//DTD SVG 20010904//EN"
 "http://www.w3.org/TR/2001/REC-SVG-20010904/DTD/svg10.dtd">
<svg version="1.0" xmlns="http://www.w3.org/2000/svg"
 width="1024.000000pt" height="1024.000000pt" viewBox="0 0 1024.000000 1024.000000"
 preserveAspectRatio="xMidYMid meet">
<metadata>
Created by potrace 1.16, written by Peter Selinger 2001-2019
</metadata>
<g transform="translate(0.000000,1024.000000) scale(0.100000,-0.100000)"
fill="#607d97" stroke="none">
<path d="M4845 8149 c-557 -52 -1062 -244 -1530 -582 -339 -246 -646 -595
-854 -974 -122 -222 -250 -551 -300 -773 -103 -459 -104 -919 -5 -1370 32
-145 127 -432 188 -570 416 -931 1280 -1595 2288 -1760 701 -114 1449 29 2050
391 491 296 873 702 1133 1202 220 422 327 835 342 1317 21 670 -171 1307
-560 1855 -502 708 -1310 1178 -2166 1259 -174 17 -436 19 -586 5z m425 -299
c700 -41 1329 -329 1815 -831 136 -140 216 -238 309 -377 408 -612 553 -1356
405 -2072 -92 -445 -284 -844 -573 -1192 -379 -455 -874 -766 -1451 -912 -244
-61 -326 -70 -650 -71 -272 0 -312 2 -430 24 -425 76 -793 222 -1110 439 -671
462 -1109 1197 -1186 1997 -17 177 -7 539 20 690 105 596 347 1076 750 1488
471 483 1119 779 1781 816 74 5 142 8 150 9 8 1 85 -3 170 -8z"/>
<path d="M4893 6455 c-87 -19 -210 -86 -287 -156 -336 -308 -483 -970 -355
-1598 41 -204 132 -428 236 -584 59 -89 182 -211 257 -256 393 -235 814 -2
1007 559 75 217 103 394 103 655 1 262 -29 460 -102 676 -76 225 -177 394
-315 526 -95 90 -188 144 -303 173 -88 23 -153 24 -241 5z m252 -280 c137 -67
272 -247 350 -468 15 -43 26 -79 24 -81 -31 -26 -1016 -779 -1024 -783 -17 -6
-24 52 -32 242 -16 436 116 853 327 1031 59 50 66 54 121 75 73 26 160 21 234
-16z m452 -1145 c-5 -195 -19 -296 -62 -445 -89 -308 -251 -516 -430 -553
-176 -37 -365 114 -497 394 -22 48 -41 99 -42 114 -1 25 49 66 509 420 l510
392 8 -69 c5 -37 6 -151 4 -253z"/>
<path d="M3413 6237 c-232 -100 -433 -193 -447 -206 -71 -67 -42 -184 53 -211
43 -12 65 -5 410 144 162 70 296 125 298 123 2 -3 -1 -488 -7 -1080 -12 -1173
-14 -1124 44 -1162 62 -41 141 -23 183 42 17 25 18 74 24 703 16 1684 15 1742
-6 1774 -20 31 -70 56 -107 55 -13 0 -213 -82 -445 -182z"/>
<path d="M6603 6335 c-55 -24 -67 -61 -71 -225 l-4 -145 -87 -42 c-414 -200
-582 -804 -350 -1267 21 -43 55 -100 74 -126 78 -106 216 -212 327 -251 l36
-12 4 -152 c3 -143 4 -152 28 -182 47 -59 121 -66 180 -17 40 34 50 78 50 214
l0 115 82 23 c45 12 111 39 146 58 116 65 270 231 292 315 30 110 -90 199
-186 140 -18 -11 -49 -45 -69 -75 -46 -70 -112 -129 -190 -170 -56 -29 -67
-31 -160 -31 -94 0 -104 2 -163 33 -127 66 -234 212 -279 382 -27 100 -24 292
5 395 64 223 225 392 394 414 161 20 297 -52 406 -214 75 -111 150 -132 225
-65 29 26 32 34 32 87 0 53 -5 66 -43 125 -96 148 -258 268 -414 307 l-73 19
-5 139 c-6 156 -16 184 -75 209 -42 17 -71 17 -112 -1z"/>
</g>
</svg>
