<?xml version="1.0" standalone="no"?>
<!DOCTYPE svg PUBLIC "-//W3C//DTD SVG 20010904//EN"
 "http://www.w3.org/TR/2001/REC-SVG-20010904/DTD/svg10.dtd">
<svg version="1.0" xmlns="http://www.w3.org/2000/svg"
 width="1024.000000pt" height="1024.000000pt" viewBox="0 0 1024.000000 1024.000000"
 preserveAspectRatio="xMidYMid meet">
<metadata>
Created by potrace 1.16, written by Peter Selinger 2001-2019
</metadata>
<g transform="translate(0.000000,1024.000000) scale(0.100000,-0.100000)"
fill="#607d97" stroke="none">
<path d="M4845 8149 c-557 -52 -1062 -244 -1530 -582 -339 -246 -646 -595
-854 -974 -122 -222 -250 -551 -300 -773 -103 -459 -104 -919 -5 -1370 32
-145 127 -432 188 -570 416 -931 1280 -1595 2288 -1760 701 -114 1449 29 2050
391 491 296 873 702 1133 1202 220 422 327 835 342 1317 21 670 -171 1307
-560 1855 -502 708 -1310 1178 -2166 1259 -174 17 -436 19 -586 5z m425 -299
c700 -41 1329 -329 1815 -831 136 -140 216 -238 309 -377 408 -612 553 -1356
405 -2072 -105 -510 -345 -965 -704 -1339 -80 -82 -276 -261 -287 -261 -2 0
-2 17 0 37 3 23 -2 49 -13 69 -35 65 -25 64 -626 64 l-544 0 86 88 c47 48 144
154 215 236 71 82 180 208 242 280 269 309 389 517 452 778 27 113 27 286 1
390 -46 179 -162 333 -306 406 -103 51 -182 67 -340 67 -125 0 -163 -4 -228
-23 -226 -65 -409 -219 -518 -438 -48 -95 -57 -146 -36 -196 20 -48 60 -73
113 -72 64 1 90 24 134 119 92 200 231 315 423 352 227 43 397 -28 483 -203
31 -62 37 -86 42 -162 12 -223 -99 -480 -325 -748 -261 -310 -485 -558 -669
-739 -230 -228 -240 -242 -214 -319 23 -70 -25 -66 790 -66 l735 0 -68 -45
c-310 -209 -676 -352 -1087 -427 -111 -20 -158 -22 -425 -23 -272 0 -312 2
-430 24 -425 76 -793 222 -1110 439 -671 462 -1109 1197 -1186 1997 -17 177
-7 539 20 690 105 596 347 1076 750 1488 471 483 1119 779 1781 816 74 5 142
8 150 9 8 1 85 -3 170 -8z"/>
<path d="M4367 7477 c-251 -108 -408 -182 -426 -199 -77 -73 -24 -208 82 -208
28 0 120 35 331 125 160 69 295 125 300 125 5 0 6 -434 2 -1027 -8 -1126 -11
-1057 53 -1100 42 -28 86 -29 129 -3 66 40 62 -22 73 1219 12 1250 15 1179
-53 1221 -18 11 -46 20 -63 20 -16 -1 -209 -78 -428 -173z"/>
<path d="M3280 6612 c-58 -28 -70 -66 -70 -219 0 -132 0 -133 -23 -133 -46 0
-144 -31 -227 -72 -187 -91 -280 -245 -280 -459 0 -174 66 -335 185 -455 77
-78 135 -115 364 -229 380 -190 489 -291 499 -466 5 -88 -6 -134 -50 -200 -38
-57 -105 -102 -183 -125 -92 -27 -327 -24 -417 5 -96 31 -158 90 -203 196 -42
98 -79 135 -136 135 -77 0 -129 -51 -129 -128 0 -82 76 -229 162 -314 84 -82
250 -158 348 -158 14 0 30 -4 35 -8 6 -4 10 -69 10 -157 0 -141 1 -152 23
-182 58 -82 194 -53 222 46 5 20 10 93 10 162 0 136 1 139 54 139 41 0 140 30
214 65 287 135 392 546 209 819 -95 142 -195 215 -530 388 -300 154 -329 177
-391 299 -40 80 -52 157 -36 236 37 175 322 273 543 186 109 -43 170 -111 211
-237 14 -41 30 -86 37 -98 29 -55 91 -79 152 -59 77 26 97 88 66 201 -35 126
-79 209 -152 287 -73 77 -139 117 -257 157 l-75 25 -5 143 c-6 162 -15 189
-75 214 -45 18 -63 18 -105 -4z"/>
<path d="M5996 6219 c-33 -9 -38 -15 -978 -946 -362 -358 -662 -663 -668 -678
-24 -63 -2 -133 50 -160 35 -18 97 -19 126 -2 12 7 380 367 818 801 865 857
833 821 807 905 -19 63 -88 99 -155 80z"/>
</g>
</svg>
