<?xml version="1.0" standalone="no"?>
<!DOCTYPE svg PUBLIC "-//W3C//DTD SVG 20010904//EN"
 "http://www.w3.org/TR/2001/REC-SVG-20010904/DTD/svg10.dtd">
<svg version="1.0" xmlns="http://www.w3.org/2000/svg"
 width="1024.000000pt" height="1024.000000pt" viewBox="0 0 1024.000000 1024.000000"
 preserveAspectRatio="xMidYMid meet">
<metadata>
Created by potrace 1.16, written by Peter Selinger 2001-2019
</metadata>
<g transform="translate(0.000000,1024.000000) scale(0.100000,-0.100000)"
fill="#607d97" stroke="none">
<path d="M715 7486 c-40 -17 -82 -67 -95 -114 -7 -25 -10 -762 -10 -2262 l0
-2226 23 -44 c13 -26 36 -53 57 -65 35 -20 39 -20 4425 -23 4236 -2 4391 -1
4425 16 22 12 43 35 58 62 l22 44 0 2238 c0 1868 -2 2244 -14 2271 -21 51 -67
83 -145 101 -63 14 -481 16 -4393 16 -3572 -1 -4328 -3 -4353 -14z m6232 -296
l2373 0 0 -2070 0 -2070 -4202 2 -4203 3 -3 2074 -2 2074 1832 -6 c1007 -4
2899 -7 4205 -7z"/>
<path d="M4190 6622 c-58 -28 -70 -66 -70 -219 0 -132 0 -133 -23 -133 -46 0
-144 -31 -227 -72 -187 -91 -280 -245 -280 -459 0 -174 66 -335 185 -455 77
-78 135 -115 364 -229 380 -190 489 -291 499 -466 5 -88 -6 -134 -50 -200 -38
-57 -105 -102 -183 -125 -92 -27 -327 -24 -417 5 -96 31 -158 90 -203 196 -42
98 -79 135 -136 135 -77 0 -129 -51 -129 -128 0 -82 76 -229 162 -314 84 -82
250 -158 348 -158 14 0 30 -4 35 -8 6 -4 10 -69 10 -157 0 -141 1 -152 23
-182 58 -82 194 -53 222 46 5 20 10 93 10 162 0 136 1 139 54 139 41 0 140 30
214 65 287 135 392 546 209 819 -95 142 -195 215 -530 388 -300 154 -329 177
-391 299 -40 80 -52 157 -36 236 37 175 322 273 543 186 109 -43 170 -111 211
-237 14 -41 30 -86 37 -98 29 -55 91 -79 152 -59 77 26 97 88 66 201 -35 126
-79 209 -152 287 -73 77 -139 117 -257 157 l-75 25 -5 143 c-6 162 -15 189
-75 214 -45 18 -63 18 -105 -4z"/>
<path d="M5395 6406 c-17 -7 -37 -26 -44 -42 -16 -35 -114 -1095 -108 -1167 5
-60 32 -98 82 -115 53 -18 91 -4 177 63 40 31 93 67 118 80 234 119 518 61
699 -142 208 -232 208 -580 0 -807 -171 -188 -441 -238 -673 -126 -100 48
-161 105 -269 250 -43 59 -97 80 -152 59 -88 -33 -106 -122 -45 -223 47 -78
148 -187 225 -242 79 -56 194 -109 293 -136 108 -28 296 -28 404 0 240 65 429
215 534 427 63 128 84 209 91 350 12 251 -72 474 -245 652 -232 237 -604 320
-902 200 l-60 -25 0 32 c1 65 57 656 63 662 4 4 222 1 486 -5 526 -13 525 -13
569 44 26 33 29 92 7 135 -31 60 -51 63 -370 71 -807 19 -849 20 -880 5z"/>
</g>
</svg>
